<?xml version="1.0" standalone="no"?>
<!DOCTYPE svg PUBLIC "-//W3C//DTD SVG 20010904//EN"
 "http://www.w3.org/TR/2001/REC-SVG-20010904/DTD/svg10.dtd">
<svg version="1.0" xmlns="http://www.w3.org/2000/svg"
 width="450.000000pt" height="450.000000pt" viewBox="0 0 450.000000 450.000000"
 preserveAspectRatio="xMidYMid meet">

<g transform="translate(0.000000,450.000000) scale(0.100000,-0.100000)"
fill="#000000" stroke="none">
<path d="M2073 4385 c0 -7 6 -11 14 -8 9 4 11 0 7 -11 -5 -12 -14 -15 -33 -12
-66 14 -121 17 -121 8 0 -6 -12 -15 -27 -20 l-28 -10 30 -1 c17 -1 41 -10 54
-20 l23 -18 -33 -2 c-79 -6 -88 -7 -94 -12 -3 -4 -37 -4 -75 -1 -50 3 -70 1
-70 -7 0 -9 -5 -9 -20 -1 -11 6 -17 16 -14 22 5 7 2 8 -5 4 -7 -5 -10 -10 -7
-13 10 -11 -31 -43 -47 -37 -10 3 -17 1 -17 -5 0 -7 -6 -11 -12 -10 -29 3 -58
-2 -58 -10 0 -14 33 -23 40 -11 4 6 12 -1 19 -16 14 -32 10 -37 -46 -53 -24
-6 -43 -17 -43 -22 0 -6 -6 -9 -14 -6 -13 5 -40 -19 -43 -38 -1 -5 -20 -15
-42 -20 -50 -13 -65 -26 -16 -15 65 15 33 -14 -36 -32 -35 -9 -60 -17 -56 -17
11 -1 -19 -31 -31 -31 -6 0 -13 -7 -16 -16 -4 -9 -9 -14 -13 -11 -6 7 -63 -23
-63 -34 0 -4 -9 -9 -21 -12 -12 -3 -18 -10 -14 -16 3 -6 0 -9 -7 -6 -18 7
-100 -54 -91 -67 3 -6 2 -8 -3 -5 -6 3 -16 2 -24 -4 -11 -6 -11 -9 -2 -10 6
-1 18 -2 25 -3 7 -1 11 -13 9 -29 -2 -16 2 -27 9 -27 7 0 9 -3 6 -6 -4 -4 -13
-1 -22 6 -12 10 -15 10 -15 -5 0 -9 -10 -26 -22 -37 l-23 -20 28 16 c15 9 38
21 52 26 25 9 25 9 9 -15 -9 -14 -20 -25 -25 -25 -4 0 -6 -14 -4 -31 3 -23 -2
-36 -21 -51 -13 -12 -24 -28 -24 -35 0 -8 -4 -11 -10 -8 -5 3 -10 2 -10 -4 0
-5 -6 -16 -12 -23 -28 -29 -43 -52 -30 -44 10 6 13 3 11 -10 -2 -11 0 -24 3
-30 9 -13 -1 -54 -13 -54 -5 0 -9 -8 -9 -18 0 -10 -3 -22 -7 -26 -4 -4 -8 -21
-9 -38 -1 -25 4 -32 28 -40 27 -10 30 -14 26 -49 -2 -21 1 -41 7 -44 6 -3 5
-7 -2 -11 -23 -10 -14 -23 13 -18 22 4 25 2 19 -17 -8 -23 3 -21 38 9 25 22
29 11 12 -39 -15 -40 -12 -99 3 -99 4 0 8 -10 8 -22 1 -13 9 -45 17 -73 8 -27
27 -88 40 -134 38 -126 81 -171 125 -130 26 24 32 24 32 0 0 -20 -22 -44 -36
-39 -15 5 -16 -6 -4 -36 13 -35 7 -44 -16 -22 -25 25 -36 15 -39 -34 -3 -48
38 -156 55 -145 5 3 12 -19 15 -49 6 -43 13 -59 31 -71 13 -8 24 -21 24 -28 0
-7 14 -23 30 -37 31 -25 39 -55 18 -62 -7 -3 -4 -12 11 -27 12 -12 26 -32 32
-44 19 -44 -2 46 -28 118 -41 114 -50 166 -52 279 -1 59 -5 114 -8 122 -10 26
6 14 22 -16 20 -39 36 -39 29 0 -8 40 13 88 45 105 31 15 189 41 198 31 4 -3
-8 -6 -25 -6 -29 0 -31 -2 -22 -25 8 -21 6 -25 -8 -26 -11 -1 -8 -4 8 -9 19
-6 20 -8 6 -9 -13 -1 -16 -6 -12 -17 5 -14 4 -15 -9 -4 -11 9 -15 9 -15 1 0
-6 7 -14 15 -18 13 -4 12 -8 -6 -21 -19 -13 -20 -16 -4 -24 26 -15 73 -27 79
-20 10 10 55 11 61 1 3 -5 -2 -6 -11 -2 -12 4 -15 3 -10 -5 4 -7 13 -12 21
-12 17 0 26 25 13 38 -10 10 -2 52 10 52 4 0 13 -12 20 -28 25 -50 25 -53 7
-46 -13 5 -16 3 -13 -7 2 -8 14 -15 26 -17 30 -5 47 -28 33 -45 -12 -15 -114
-21 -105 -6 3 5 -2 6 -10 3 -9 -3 -16 -8 -16 -11 0 -11 30 -33 54 -39 14 -3
23 -10 20 -15 -3 -5 6 -5 20 1 24 9 30 6 27 -12 0 -4 6 -5 14 -2 8 4 15 1 15
-6 0 -6 4 -9 9 -6 5 4 12 0 14 -6 4 -10 6 -10 6 0 1 7 5 10 11 7 5 -3 20 0 32
7 21 11 47 12 57 2 2 -2 -2 -11 -10 -21 -12 -14 -9 -13 16 3 26 16 28 16 16 1
-11 -14 -11 -20 0 -34 11 -13 11 -15 1 -9 -9 5 -21 1 -32 -12 -16 -17 -17 -21
-5 -26 20 -7 46 4 38 17 -3 6 -1 7 6 3 23 -14 47 20 93 131 6 16 15 64 19 108
l7 80 -2 -85 c-2 -70 -8 -98 -35 -160 -41 -96 -59 -114 -134 -135 -67 -19
-248 -26 -325 -12 -24 4 -41 4 -38 -1 2 -4 24 -9 47 -11 23 -1 47 -5 53 -9 6
-3 22 -5 35 -3 13 1 21 -1 18 -6 -3 -5 3 -9 13 -9 10 0 16 4 14 8 -3 5 7 8 23
8 53 -1 198 20 216 31 11 6 22 8 25 5 3 -3 0 -6 -7 -6 -7 0 -9 -5 -6 -10 3 -6
-6 -15 -20 -20 -14 -5 -24 -14 -21 -18 3 -5 -4 -16 -15 -25 -10 -9 -19 -14
-19 -10 0 4 -12 -17 -27 -47 -16 -30 -32 -58 -36 -61 -4 -3 -5 -14 -1 -24 6
-14 4 -16 -6 -10 -10 6 -12 4 -7 -8 3 -10 2 -17 -4 -17 -6 0 -7 -4 -4 -10 3
-5 -5 -15 -20 -22 -19 -9 -24 -16 -19 -32 6 -18 5 -19 -9 -7 -9 7 -14 18 -11
25 3 6 -5 -1 -17 -16 -12 -15 -23 -39 -25 -54 -3 -24 -2 -25 10 -9 12 16 13
16 11 -6 -1 -13 -8 -23 -14 -21 -14 3 -14 -13 0 -40 8 -15 8 -19 0 -14 -6 4
-11 0 -11 -8 0 -9 7 -16 16 -16 10 0 14 -6 11 -15 -4 -8 -1 -17 6 -21 7 -4 9
-3 4 1 -4 5 3 19 15 32 23 25 40 30 36 12 -2 -6 5 -13 14 -14 11 -2 15 3 13
16 -5 25 21 25 34 0 6 -10 12 -37 13 -59 2 -22 6 -38 9 -36 8 5 49 -52 49 -68
0 -8 -13 -15 -30 -16 -16 -1 -30 2 -30 8 0 5 -7 10 -16 10 -8 0 -12 5 -9 10 3
6 1 10 -6 10 -8 0 -8 4 1 15 11 13 10 14 -6 8 -17 -6 -17 -5 -6 10 16 19 7 57
-14 57 -8 0 -13 5 -12 12 2 7 -8 12 -22 12 -21 1 -25 -4 -24 -27 0 -20 -4 -27
-15 -24 -9 1 -15 11 -13 21 2 12 -1 16 -9 10 -7 -4 -10 -3 -5 4 3 6 -5 22 -19
36 -14 14 -25 22 -25 19 0 -4 -5 -2 -12 5 -19 19 -30 14 -23 -9 6 -19 5 -20
-8 -8 -8 8 -12 20 -10 26 3 7 1 13 -4 13 -21 0 -21 -14 -1 -40 12 -17 18 -35
14 -46 -4 -11 8 -34 39 -71 25 -30 42 -60 38 -66 -3 -5 -1 -7 4 -4 18 11 54
-28 46 -49 -6 -17 -5 -18 13 -4 35 28 49 65 19 54 -8 -4 -12 -11 -8 -17 4 -6
1 -7 -7 -2 -11 7 -10 10 1 19 19 14 23 57 5 50 -15 -6 -30 22 -16 31 9 6 46
-37 55 -65 4 -11 12 -16 24 -13 10 2 23 -4 31 -14 12 -15 12 -16 0 -5 -8 6
-21 12 -30 12 -12 -1 -11 -4 4 -15 11 -8 17 -17 14 -20 -3 -3 -13 2 -23 11
-16 16 -18 15 -40 -12 -18 -23 -21 -34 -14 -54 18 -50 33 -70 48 -68 9 2 16
-4 16 -12 2 -27 16 -48 36 -53 11 -3 19 -14 19 -27 0 -20 -4 -19 -42 16 -24
21 -61 58 -82 81 -22 24 -42 43 -46 43 -4 0 -7 -13 -7 -30 0 -25 2 -27 12 -13
10 13 13 7 19 -38 4 -29 12 -56 17 -59 16 -10 -15 -42 -34 -34 -9 3 -14 11
-10 17 3 6 1 7 -5 3 -40 -24 31 -216 125 -338 48 -63 136 -155 198 -209 58
-48 145 -154 184 -223 l34 -58 -22 -44 c-11 -25 -21 -51 -21 -60 0 -33 75
-172 87 -160 14 14 45 165 53 257 15 184 45 227 210 297 41 18 107 56 145 85
97 72 228 199 266 258 35 56 34 78 -2 28 -27 -39 -101 -112 -149 -148 -19 -14
-41 -34 -48 -43 -7 -10 -18 -18 -23 -18 -5 0 -34 -16 -64 -35 -30 -19 -55 -32
-55 -29 0 2 -6 0 -12 -5 -57 -47 -77 -61 -87 -61 -7 0 -14 -6 -17 -13 -3 -8
-10 -14 -17 -15 -7 0 -23 -4 -36 -8 -20 -6 -23 -4 -18 9 4 10 2 17 -3 17 -6 0
-10 -7 -10 -15 0 -19 -40 18 -59 53 -6 12 -18 22 -26 22 -20 0 -39 74 -25 100
6 11 17 17 24 14 10 -4 16 3 18 18 2 13 11 24 21 26 11 2 28 13 38 23 11 11
24 17 28 14 5 -2 14 2 21 10 7 8 16 13 20 10 4 -2 17 5 28 16 12 11 22 17 22
14 0 -4 13 3 29 14 15 11 31 18 35 14 3 -3 6 -2 6 3 0 6 18 20 40 33 22 12 40
27 40 33 0 7 -7 5 -17 -3 -58 -48 -215 -108 -286 -109 -80 -2 -94 3 -78 28 5
8 16 9 39 3 30 -9 31 -8 21 10 -5 11 -15 16 -21 13 -20 -12 -68 -10 -68 4 0 6
-9 12 -20 12 -11 0 -20 4 -20 10 0 5 -10 14 -21 21 -17 9 -24 8 -31 -2 -7 -10
-8 -7 -5 9 5 19 2 23 -11 20 -9 -3 -27 6 -40 19 -12 13 -19 23 -15 23 4 0 -3
10 -17 21 -14 11 -19 18 -11 14 9 -5 8 0 -4 18 -16 25 -16 25 12 21 79 -12
103 -13 108 -4 3 5 12 7 20 3 14 -5 20 8 16 31 -1 5 5 4 13 -4 10 -8 16 -9 16
-2 0 18 34 32 51 20 11 -8 9 -8 -6 -3 -16 5 -18 4 -7 -7 11 -11 16 -9 30 10
10 13 24 21 32 19 8 -2 12 -2 8 0 -15 8 -8 19 12 21 48 4 51 5 40 16 -14 14
-13 29 2 20 8 -5 9 -2 5 10 -4 10 -7 19 -7 21 0 2 -10 1 -22 -2 -19 -4 -20 -3
-8 6 8 6 11 11 5 11 -5 0 -4 5 2 11 11 11 6 49 -7 49 -5 0 -6 -8 -3 -19 3 -10
0 -22 -6 -25 -6 -4 -9 -1 -5 7 3 9 -4 21 -16 30 -19 13 -20 16 -5 30 8 9 22
14 30 11 8 -4 15 -1 15 4 0 6 10 14 22 18 25 8 81 45 86 57 2 4 10 7 17 7 8 0
20 6 27 13 25 24 82 61 73 47 -5 -9 -4 -11 3 -6 7 4 12 13 12 21 0 8 9 20 20
28 11 8 17 17 13 20 -3 4 -1 7 6 7 16 0 33 -49 28 -83 -2 -15 0 -27 5 -27 4 0
8 7 8 16 0 8 4 13 10 9 15 -9 34 74 35 152 1 40 4 75 8 79 11 11 8 74 -4 74
-5 0 -8 4 -5 8 3 5 -10 26 -29 47 -19 21 -35 42 -35 47 0 5 -4 6 -10 3 -5 -3
-10 -1 -10 5 0 6 -13 16 -30 21 -16 6 -27 16 -24 21 4 6 0 14 -7 19 -10 6 -7
9 11 9 l25 1 -25 14 c-25 14 -25 14 -2 15 23 0 32 19 10 21 -7 1 35 9 94 20
58 10 121 25 140 34 18 8 24 13 13 9 -75 -22 -174 -36 -261 -37 -121 0 -161
15 -213 83 -19 25 -38 44 -42 42 -5 -1 -8 1 -8 5 4 22 -2 32 -15 27 -8 -3 -19
3 -25 15 -9 17 -8 19 7 16 11 -2 19 3 19 11 0 8 -4 14 -8 14 -5 0 -6 7 -3 15
4 8 1 15 -5 15 -6 0 -8 7 -5 15 4 10 0 15 -14 15 -13 0 -22 -8 -25 -22 -4 -20
-4 -19 -6 5 -1 33 -21 37 -21 4 0 -28 186 -310 206 -313 7 -1 27 -12 43 -23
16 -12 32 -21 36 -21 9 0 103 -98 123 -129 9 -13 18 -33 21 -45 8 -37 5 -116
-5 -126 -13 -13 -115 -49 -157 -56 -18 -2 -59 -4 -92 -3 -76 2 -73 2 -115 -8
-36 -9 -160 3 -160 16 0 4 12 8 27 9 33 3 42 10 24 21 -11 7 -9 12 9 21 17 9
19 14 10 20 -9 6 -7 10 9 15 12 3 19 11 16 16 -4 5 0 9 8 9 8 0 22 9 32 20 10
11 32 22 49 25 17 4 40 8 51 10 11 2 22 4 25 5 3 1 8 2 13 1 4 0 7 3 7 8 0 5
9 13 20 16 32 10 13 25 -31 25 -45 0 -84 -17 -113 -49 -11 -12 -30 -21 -43
-21 -32 0 -65 18 -57 31 3 6 -4 7 -20 3 -17 -4 -26 -2 -26 6 0 6 4 8 10 5 5
-3 18 -1 27 5 12 7 13 10 3 7 -8 -2 -25 9 -36 25 -21 28 -22 28 -40 11 -17
-17 -17 -17 -11 0 7 20 6 20 -27 8 -16 -7 -26 -7 -28 0 -2 5 -11 -4 -21 -20
l-17 -29 25 3 c14 1 28 -1 30 -5 3 -5 -6 -7 -21 -5 -14 1 -31 -4 -39 -11 -17
-18 -18 -18 -45 6 -19 16 -22 26 -17 57 7 40 51 87 74 79 7 -3 12 0 10 7 -1 7
6 11 17 9 10 -2 15 1 12 7 -4 5 -2 12 4 16 6 4 8 10 5 15 -6 10 15 73 29 82 7
5 6 8 -3 8 -9 0 -10 4 -4 13 16 21 33 89 37 147 3 31 10 68 17 84 11 24 18 27
44 23 27 -5 30 -3 30 23 0 16 -4 32 -9 37 -6 5 -6 2 -1 -7 8 -13 7 -13 -10 0
-18 14 -17 15 4 18 38 6 81 -17 81 -44 0 -12 5 -26 10 -29 6 -4 10 12 10 42 0
55 17 86 60 108 34 18 40 18 40 4 0 -5 -4 -8 -9 -4 -5 3 -12 -4 -16 -15 -3
-11 -11 -20 -16 -20 -6 0 -7 -5 -3 -11 3 -6 9 -28 11 -48 3 -20 10 -42 15 -48
6 -7 7 -13 2 -13 -4 0 3 -11 16 -25 13 -14 19 -25 14 -25 -5 0 -1 -5 9 -11 9
-6 14 -15 11 -21 -5 -7 0 -9 12 -6 23 6 42 -11 36 -32 -3 -12 -2 -13 6 -1 10
14 36 6 27 -9 -5 -8 23 -25 38 -22 7 2 11 -13 8 -38 -2 -9 4 -6 14 8 9 12 21
20 26 17 5 -3 6 1 3 10 -4 9 -12 14 -19 11 -7 -2 -18 1 -24 7 -8 8 -11 7 -11
-4 0 -12 -2 -12 -9 0 -5 8 -7 20 -4 28 4 10 9 9 21 -8 13 -18 16 -19 23 -6 6
9 18 13 31 11 20 -4 21 -3 4 4 -14 6 -16 11 -8 16 7 4 18 4 25 0 9 -6 9 -4 -1
8 -11 14 -8 17 22 22 48 9 65 32 26 34 -51 3 -59 5 -54 13 2 4 -3 12 -12 17
-17 10 -4 16 86 43 25 7 53 22 63 33 15 17 17 17 17 2 0 -10 5 -14 11 -10 7 4
26 7 42 8 27 1 54 26 28 26 -6 0 -30 12 -53 26 -24 15 -77 34 -126 44 -58 11
-79 19 -66 24 15 6 16 9 5 16 -19 11 99 24 219 23 68 0 104 -5 127 -16 33 -17
37 -26 49 -90 6 -34 8 -36 20 -20 7 10 14 25 14 35 0 9 11 25 24 35 14 10 28
32 31 48 5 23 4 26 -4 15 -7 -9 -11 -10 -11 -3 0 15 13 14 -285 17 -137 1
-255 -1 -262 -6 -6 -5 -14 -5 -18 2 -3 5 1 10 9 10 9 0 16 5 16 11 0 6 -8 9
-19 6 -14 -3 -17 0 -13 15 3 12 8 16 14 10 6 -6 20 1 39 21 16 16 29 27 29 23
0 -4 7 0 16 8 8 9 27 16 42 17 15 0 36 3 47 5 58 12 135 19 137 13 2 -3 17 -4
34 -2 25 4 31 9 27 24 -4 14 -11 18 -24 14 -14 -5 -17 -2 -13 9 6 15 -6 20
-44 19 -8 -1 -11 5 -8 14 5 12 1 14 -14 10 -10 -3 -18 -2 -17 2 1 3 -2 7 -7 8
-5 1 -13 7 -17 15 -6 9 -9 10 -9 1 0 -7 -7 -10 -15 -6 -9 3 -21 -1 -28 -10 -7
-9 -35 -17 -67 -20 -79 -8 -147 -26 -198 -53 -24 -13 -48 -22 -52 -19 -13 8
-21 -26 -10 -40 12 -15 3 -26 -16 -18 -22 8 -16 -11 9 -27 12 -8 25 -14 28
-15 8 0 39 -32 39 -40 0 -4 -7 -5 -15 -1 -13 4 -14 2 -5 -14 9 -16 8 -18 -6
-13 -10 4 -22 0 -28 -9 -6 -8 -13 -15 -16 -15 -19 0 -49 -16 -45 -24 4 -5 1
-9 -5 -9 -7 0 -23 -9 -37 -20 -35 -28 -108 -28 -123 0 -11 20 -5 25 27 21 6
-1 14 3 17 7 3 5 -12 12 -32 16 -21 3 -49 15 -62 26 -13 11 -30 18 -37 16 -7
-3 -15 -1 -19 5 -4 6 -12 5 -22 -3 -10 -7 -14 -8 -10 -4 11 13 -34 87 -49 82
-7 -3 -13 1 -13 10 0 9 5 12 12 8 7 -4 8 -3 4 4 -4 6 -12 9 -19 6 -7 -2 -21 3
-32 12 -20 16 -20 16 0 9 18 -6 19 -5 4 10 -15 15 -33 19 -134 30 -16 2 -30 4
-30 5 0 3 -40 9 -74 12 -18 1 -36 8 -38 15 -4 10 -9 10 -18 3 -13 -11 -95 -9
-95 3 0 4 5 7 12 7 6 0 9 2 6 5 -11 11 -59 -22 -75 -53 -10 -19 -23 -30 -31
-27 -7 2 -11 1 -7 -4 3 -5 -3 -17 -12 -26 -17 -18 -28 -79 -12 -69 5 3 9 1 9
-5 0 -7 9 -7 28 1 46 18 100 20 129 4 20 -11 23 -15 11 -16 -10 0 -18 -8 -18
-17 0 -13 -3 -14 -12 -5 -14 14 -48 16 -48 3 0 -5 9 -7 20 -4 14 4 20 0 20
-11 0 -9 7 -16 15 -16 8 0 15 -3 15 -7 0 -5 -11 -8 -24 -8 -13 0 -22 4 -18 9
3 5 -2 6 -12 3 -10 -4 -21 -7 -24 -7 -4 0 0 -5 8 -11 12 -9 11 -10 -7 -6 -13
3 -23 1 -23 -5 0 -6 -7 -7 -15 -4 -9 3 -23 2 -33 -4 -15 -8 -152 -40 -172 -40
-5 0 -13 21 -18 46 -8 35 -6 78 9 178 27 187 26 182 37 202 6 11 7 27 1 41 -5
13 -5 23 -1 23 5 0 17 7 28 16 10 8 15 13 9 11 -11 -5 -28 12 -33 32 -2 8 3
11 12 8 9 -4 18 -1 22 5 4 6 3 8 -4 4 -6 -3 -13 -2 -16 3 -8 12 37 8 46 -4 4
-6 8 -2 8 8 0 15 11 22 25 15 7 -4 34 36 29 43 -2 4 2 12 9 17 9 8 20 7 39 -2
30 -16 33 -2 8 30 -8 10 -10 15 -3 11 6 -4 14 -3 18 3 8 13 25 13 25 -1 0 -5
-6 -7 -12 -3 -7 4 -9 3 -5 -1 24 -27 75 13 61 49 -3 9 -1 16 5 16 6 0 11 7 11
15 0 8 7 15 15 15 8 0 15 -5 15 -12 0 -8 3 -9 10 -2 6 6 8 19 4 28 -4 10 -10
13 -13 8 -3 -5 -19 -12 -36 -16 -35 -9 -32 -5 13 17 27 13 34 13 46 2 11 -12
17 -10 36 11 13 13 29 24 36 24 7 0 17 6 21 13 8 12 58 34 97 42 11 3 25 0 33
-6 9 -8 13 -8 13 0 0 6 4 11 10 11 5 0 7 -6 4 -14 -4 -11 0 -13 15 -9 12 3 21
10 21 15 0 5 6 6 12 2 16 -10 48 -13 48 -4 0 12 78 50 104 50 15 0 25 4 21 9
-3 6 4 8 15 6 11 -2 20 0 20 4 0 5 8 8 18 8 44 -3 122 14 116 25 -5 7 -3 8 6
3 18 -11 50 -12 82 -4 15 4 26 4 25 1 -2 -6 8 -13 16 -11 9 3 38 8 72 14 22 4
48 14 57 22 9 8 22 12 27 8 6 -3 11 0 11 8 0 8 7 18 16 21 11 4 15 2 11 -7 -3
-7 3 -18 12 -24 14 -9 21 -7 30 5 9 13 24 16 61 14 28 -2 47 -8 44 -13 -3 -5
4 -9 15 -9 12 0 21 -4 21 -9 0 -5 18 -17 40 -27 22 -10 40 -22 40 -28 0 -5 3
-6 7 -2 6 5 63 -75 63 -89 0 -3 -8 -5 -17 -5 -13 0 -11 -5 10 -19 26 -17 27
-19 12 -35 -15 -15 -15 -16 2 -16 17 -1 17 -1 0 -11 -9 -6 -15 -14 -12 -20 4
-5 0 -9 -8 -9 -8 0 -20 -7 -27 -15 -11 -13 -9 -19 8 -35 11 -11 27 -17 35 -14
18 7 57 -33 57 -58 0 -11 5 -16 10 -13 6 3 11 -4 12 -17 2 -37 3 -42 12 -57 6
-10 5 -12 -2 -7 -7 4 -12 3 -12 -3 0 -5 6 -11 12 -13 7 -3 13 -22 13 -45 0
-23 3 -39 8 -36 4 2 6 -7 3 -21 -3 -14 0 -26 5 -26 5 0 9 -7 9 -15 0 -21 32
-85 41 -80 13 9 32 -121 20 -143 -8 -15 -7 -23 5 -33 13 -10 17 -10 24 1 5 8
18 11 39 7 25 -5 31 -3 31 10 0 14 2 15 13 4 10 -10 7 -16 -13 -31 -13 -10
-36 -21 -50 -24 -47 -10 -48 -14 -34 -120 7 -54 17 -110 23 -125 6 -14 12 -38
14 -54 2 -15 7 -26 12 -25 5 2 8 11 7 21 -2 10 3 17 12 17 8 0 20 -8 25 -17 7
-13 10 -14 11 -4 0 11 4 10 19 -3 14 -13 20 -14 24 -4 5 15 -8 112 -17 127 -3
5 -8 50 -10 100 -5 84 -4 91 14 91 10 0 25 9 33 20 8 11 17 17 20 14 3 -4 9 5
12 19 4 15 13 31 21 38 8 6 14 20 14 31 0 12 4 16 11 12 7 -4 10 -1 7 7 -3 8
-2 24 3 36 7 19 3 63 -16 181 -7 36 -5 42 10 42 17 0 17 1 2 18 -12 13 -18 44
-21 108 -9 172 -15 197 -56 244 -21 24 -21 25 -2 28 19 3 19 5 5 35 -9 18 -26
46 -38 62 -12 17 -27 47 -34 68 -10 28 -18 37 -36 37 -21 0 -59 30 -39 30 5 1
-2 7 -16 15 -14 8 -19 14 -11 15 11 0 10 5 -4 20 -10 11 -22 17 -28 13 -6 -3
-7 -1 -3 5 4 7 2 12 -4 12 -7 0 -9 8 -5 20 5 14 2 20 -10 20 -8 0 -18 7 -21
15 -4 8 -10 12 -15 9 -5 -3 -14 6 -20 20 -7 14 -17 22 -25 19 -8 -3 -14 1 -14
10 0 20 -26 41 -35 27 -4 -6 -1 -9 6 -8 6 2 14 -3 16 -10 3 -8 -1 -10 -11 -6
-13 5 -15 2 -10 -12 4 -11 4 -16 0 -12 -11 10 -14 41 -6 58 5 10 0 26 -16 45
-13 17 -24 25 -24 19 0 -6 7 -17 15 -24 16 -13 21 -40 8 -40 -15 1 -43 27 -36
33 3 4 0 7 -8 7 -8 0 -22 13 -32 29 -11 20 -23 28 -35 24 -10 -2 -31 6 -46 18
-40 31 -274 149 -297 149 -10 0 -20 4 -23 9 -3 4 -27 14 -53 20 -27 7 -59 17
-72 22 -20 8 -22 7 -17 -8 6 -14 5 -16 -5 -5 -7 6 -19 12 -27 12 -8 0 -31 10
-51 22 -35 22 -46 26 -86 31 -11 1 -25 8 -31 16 -6 8 -16 11 -22 7 -6 -4 -20
-2 -30 3 -14 7 -19 6 -19 -4z m-98 -135 c3 -6 -1 -7 -9 -4 -18 7 -21 14 -7 14
6 0 13 -4 16 -10z m-65 -10 c0 -5 -2 -10 -4 -10 -3 0 -8 5 -11 10 -3 6 -1 10
4 10 6 0 11 -4 11 -10z m489 1 c7 -5 9 -11 4 -14 -4 -3 -17 1 -28 9 -21 16 0
20 24 5z m-749 -55 c0 -2 -7 -6 -15 -10 -8 -3 -15 -1 -15 4 0 6 7 10 15 10 8
0 15 -2 15 -4z m897 -42 c-3 -3 -12 -4 -19 -1 -8 3 -5 6 6 6 11 1 17 -2 13 -5z
m-1077 -106 c0 -4 -4 -8 -9 -8 -6 0 -12 4 -15 8 -3 5 1 9 9 9 8 0 15 -4 15 -9z
m1680 -252 c0 -3 -4 -8 -10 -11 -5 -3 -10 -1 -10 4 0 6 5 11 10 11 6 0 10 -2
10 -4z m-607 -100 c15 -12 15 -14 2 -19 -8 -4 -14 -1 -12 5 1 6 -9 15 -23 19
-20 6 -21 7 -5 8 11 0 28 -6 38 -13z m-970 -341 c-3 -9 -8 -14 -10 -11 -3 3
-2 9 2 15 9 16 15 13 8 -4z m1252 -395 c-3 -5 -12 -10 -18 -10 -7 0 -6 4 3 10
19 12 23 12 15 0z m-378 -57 c-14 -14 -19 -15 -29 -4 -11 10 -10 11 4 6 12 -5
20 -1 24 9 4 9 9 14 12 11 3 -3 -2 -13 -11 -22z m83 -83 c-11 -7 -11 -11 -1
-24 20 -24 1 -19 -20 6 -11 11 -19 21 -19 22 0 1 12 2 27 3 17 1 22 -2 13 -7z
m-70 -120 c0 -5 -2 -10 -4 -10 -3 0 -8 5 -11 10 -3 6 -1 10 4 10 6 0 11 -4 11
-10z m-630 -21 c56 -12 107 -49 130 -96 8 -15 20 -36 28 -45 8 -9 11 -21 8
-26 -3 -5 -32 17 -64 48 -42 41 -66 57 -83 56 -13 -1 -29 2 -36 7 -23 17 -117
2 -176 -29 -48 -24 -27 8 23 35 24 14 39 26 32 29 -7 2 -28 -6 -47 -18 -19
-12 -35 -18 -35 -13 0 4 -4 2 -9 -6 -6 -9 -11 -10 -15 -2 -4 6 -3 11 2 11 5 0
19 9 32 20 13 11 29 20 37 20 7 0 13 5 13 10 0 13 96 13 160 -1z m938 -31 c14
-14 -12 -48 -38 -48 -13 0 -16 7 -12 30 5 32 28 40 50 18z m-710 -53 c-3 -3
-9 2 -12 12 -6 14 -5 15 5 6 7 -7 10 -15 7 -18z m-228 -15 c0 -5 -4 -10 -10
-10 -5 0 -10 5 -10 10 0 6 5 10 10 10 6 0 10 -4 10 -10z m64 -67 c-16 -11 -12
-13 26 -13 l45 0 -35 -19 c-32 -17 -36 -17 -42 -2 -4 9 -7 10 -7 4 -1 -7 -6
-13 -13 -13 -6 0 -8 3 -5 7 4 3 2 12 -3 18 -7 8 -6 23 2 45 l11 33 19 -23 c19
-23 19 -25 2 -37z m233 -40 c-3 -3 -10 -2 -16 2 -7 4 -7 10 2 20 10 11 13 11
15 -2 2 -8 1 -17 -1 -20z m485 -55 c-7 -7 -12 -8 -12 -2 0 14 12 26 19 19 2
-3 -1 -11 -7 -17z m-112 -168 c8 -5 11 -12 8 -16 -4 -3 -14 1 -23 10 -18 17
-9 21 15 6z m70 -20 c24 -15 7 -19 -20 -5 -15 8 -19 14 -10 14 8 1 22 -3 30
-9z m-826 -364 c-3 -7 -11 -13 -18 -13 -11 0 -12 4 -3 18 12 20 29 16 21 -5z
m366 -64 c0 -4 -13 -13 -30 -19 -31 -12 -39 -6 -18 15 13 13 48 16 48 4z m490
-37 c0 -14 -7 -28 -16 -32 -9 -3 -27 -16 -39 -29 -13 -13 -30 -21 -38 -18 -8
3 -19 -2 -26 -10 -9 -10 -22 -13 -42 -9 -19 3 -29 1 -29 -6 0 -17 -59 -40 -92
-36 -15 2 -30 0 -33 -6 -8 -11 -82 -12 -89 -1 -3 5 -18 7 -34 4 -32 -4 -48 11
-56 50 -6 35 15 43 47 18 21 -17 26 -18 31 -5 4 10 20 15 53 15 26 0 68 7 93
16 25 9 54 16 65 17 11 0 29 7 40 14 11 7 29 13 40 13 12 0 25 4 31 9 8 8 29
13 82 20 7 0 12 -10 12 -24z m-520 -86 c0 -11 -4 -18 -10 -14 -5 3 -7 12 -3
20 7 21 13 19 13 -6z m-296 -45 c4 -10 1 -14 -6 -12 -15 5 -23 28 -10 28 5 0
13 -7 16 -16z m500 -95 c-4 -8 1 -9 17 -5 l24 7 -22 -17 c-13 -9 -23 -22 -23
-29 0 -16 -27 -27 -35 -14 -4 5 -10 7 -15 4 -5 -3 -12 0 -16 6 -5 8 1 10 19 7
14 -3 25 -2 24 1 -2 8 22 51 29 51 3 0 2 -5 -2 -11z m49 -24 c-3 -9 -8 -14
-10 -11 -3 3 -2 9 2 15 9 16 15 13 8 -4z m-445 -141 c-6 -32 -25 -26 -20 6 3
21 8 28 14 22 6 -6 8 -18 6 -28z m22 -33 c0 -6 -4 -13 -10 -16 -5 -3 -10 1
-10 9 0 9 5 16 10 16 6 0 10 -4 10 -9z m37 -58 c3 -7 -4 -9 -18 -6 -18 5 -21
3 -16 -11 4 -10 3 -15 -3 -11 -14 9 -12 32 3 38 16 7 30 3 34 -10z m-169 -40
c-2 -10 -13 -18 -26 -19 -27 -2 -28 4 -4 22 24 18 34 17 30 -3z m212 -6 c0 -7
-4 -6 -10 3 -8 12 -10 12 -10 1 0 -8 -3 -12 -6 -8 -9 9 6 28 17 22 5 -4 9 -12
9 -18z m377 -551 c10 -10 -41 -7 -57 4 -11 7 -6 9 18 6 18 -2 36 -6 39 -10z"/>
<path d="M1726 2651 c-4 -5 3 -7 14 -4 23 6 26 13 6 13 -8 0 -17 -4 -20 -9z"/>
<path d="M1540 3265 c-8 -9 -8 -15 -2 -15 12 0 26 19 19 26 -2 2 -10 -2 -17
-11z"/>
<path d="M1628 2963 c7 -3 16 -2 19 1 4 3 -2 6 -13 5 -11 0 -14 -3 -6 -6z"/>
<path d="M2110 2776 c0 -2 11 -6 25 -8 13 -3 22 -1 19 3 -5 9 -44 13 -44 5z"/>
<path d="M1480 2716 c0 -2 7 -7 16 -10 8 -3 12 -2 9 4 -6 10 -25 14 -25 6z"/>
<path d="M2790 2707 c0 -3 12 -12 26 -22 15 -9 23 -12 20 -6 -7 11 -46 35 -46
28z"/>
<path d="M2987 2704 c-12 -13 -7 -34 8 -34 9 0 16 -14 20 -37 10 -61 16 -62
10 -4 -4 52 -23 89 -38 75z"/>
<path d="M3333 2685 c-3 -9 2 -39 11 -68 9 -29 19 -67 22 -85 9 -44 20 -24 23
39 3 88 -35 166 -56 114z"/>
<path d="M1416 2615 c-38 -41 -36 -47 23 -60 32 -7 34 -6 27 16 -4 13 -9 32
-11 43 -7 30 -12 30 -39 1z"/>
<path d="M3046 2578 c-3 -13 -6 -35 -6 -49 0 -44 -36 -165 -60 -200 l-22 -34
25 27 c29 31 56 113 67 208 9 67 7 88 -4 48z"/>
<path d="M2367 2470 c3 -11 9 -20 14 -20 5 0 9 9 9 20 0 11 -6 20 -14 20 -9 0
-12 -7 -9 -20z"/>
<path d="M1472 2455 c0 -16 2 -22 5 -12 2 9 2 23 0 30 -3 6 -5 -1 -5 -18z"/>
<path d="M3192 2370 c0 -19 2 -27 5 -17 2 9 2 25 0 35 -3 9 -5 1 -5 -18z"/>
<path d="M3222 2360 c3 -15 -16 -38 -27 -34 -13 6 -19 -13 -29 -91 -4 -25 -3
-33 2 -20 5 11 14 35 21 53 9 22 25 37 47 47 42 17 48 54 10 51 -13 0 -24 -3
-24 -6z"/>
<path d="M2510 2350 c0 -5 5 -10 11 -10 5 0 7 5 4 10 -3 6 -8 10 -11 10 -2 0
-4 -4 -4 -10z"/>
<path d="M2552 2345 c4 -4 3 -14 -3 -22 -7 -8 -8 -13 -1 -13 15 0 23 28 9 36
-7 4 -9 4 -5 -1z"/>
<path d="M2609 2308 c-5 -19 -8 -50 -4 -46 7 7 15 48 9 48 -2 0 -4 -1 -5 -2z"/>
<path d="M1635 2120 c-3 -6 1 -7 9 -4 18 7 21 14 7 14 -6 0 -13 -4 -16 -10z"/>
<path d="M1655 1850 c-16 -7 -17 -9 -3 -9 9 -1 20 4 23 9 7 11 7 11 -20 0z"/>
<path d="M1597 1787 c-4 -10 2 -17 16 -21 32 -8 39 -7 32 4 -4 6 -10 8 -15 5
-5 -3 -13 2 -18 11 -8 14 -10 14 -15 1z"/>
<path d="M2375 1520 c-3 -6 1 -7 9 -4 18 7 21 14 7 14 -6 0 -13 -4 -16 -10z"/>
<path d="M2800 1275 c-7 -9 -11 -17 -9 -20 3 -2 10 5 17 15 14 24 10 26 -8 5z"/>
<path d="M2170 1262 c0 -8 -5 -10 -12 -6 -7 4 -8 3 -4 -5 4 -6 11 -9 16 -6 4
3 11 -2 14 -11 4 -9 9 -14 12 -11 3 3 -1 16 -10 29 -9 12 -16 17 -16 10z"/>
<path d="M2744 1208 l-19 -23 23 19 c21 18 27 26 19 26 -2 0 -12 -10 -23 -22z"/>
<path d="M2708 493 c5 -21 7 -23 10 -9 2 10 0 22 -6 28 -6 6 -7 0 -4 -19z"/>
<path d="M2675 357 c-17 -39 -31 -74 -33 -78 -2 -4 6 -5 18 -2 12 3 24 12 27
19 3 8 9 12 13 9 25 -15 53 82 32 110 -16 23 -29 10 -57 -58z"/>
</g>
</svg>
